<mxfile host="app.diagrams.net" modified="2023-08-28T14:40:03.805Z" agent="Mozilla/5.0 (Windows NT 10.0; Win64; x64) AppleWebKit/537.36 (KHTML, like Gecko) Chrome/116.0.0.0 Safari/537.36" etag="yONxEV7nSRv0ubEfDot6" version="21.6.9" type="github">
  <diagram name="Page-1" id="D3Ey8p9wxDZOqgnlG4tk">
    <mxGraphModel dx="1640" dy="718" grid="0" gridSize="10" guides="1" tooltips="1" connect="1" arrows="1" fold="1" page="1" pageScale="1" pageWidth="827" pageHeight="1169" math="0" shadow="0">
      <root>
        <mxCell id="0" />
        <mxCell id="1" parent="0" />
        <mxCell id="k1HMzf10UT7rga_kBx_9-90" style="edgeStyle=orthogonalEdgeStyle;rounded=0;orthogonalLoop=1;jettySize=auto;html=1;exitX=1;exitY=0.5;exitDx=0;exitDy=0;entryX=0;entryY=0.5;entryDx=0;entryDy=0;" edge="1" parent="1" source="k1HMzf10UT7rga_kBx_9-1" target="k1HMzf10UT7rga_kBx_9-3">
          <mxGeometry relative="1" as="geometry" />
        </mxCell>
        <mxCell id="k1HMzf10UT7rga_kBx_9-1" value="Start" style="rounded=1;whiteSpace=wrap;html=1;arcSize=50;" vertex="1" parent="1">
          <mxGeometry x="100" y="10" width="90" height="40" as="geometry" />
        </mxCell>
        <mxCell id="k1HMzf10UT7rga_kBx_9-2" value="End" style="rounded=1;whiteSpace=wrap;html=1;arcSize=50;" vertex="1" parent="1">
          <mxGeometry x="406.25" y="1070" width="90" height="40" as="geometry" />
        </mxCell>
        <mxCell id="k1HMzf10UT7rga_kBx_9-5" style="edgeStyle=orthogonalEdgeStyle;rounded=0;orthogonalLoop=1;jettySize=auto;html=1;exitX=0.5;exitY=1;exitDx=0;exitDy=0;entryX=0.5;entryY=0;entryDx=0;entryDy=0;" edge="1" parent="1" source="k1HMzf10UT7rga_kBx_9-3" target="k1HMzf10UT7rga_kBx_9-4">
          <mxGeometry relative="1" as="geometry" />
        </mxCell>
        <mxCell id="k1HMzf10UT7rga_kBx_9-3" value="E = Calls the elemental Subroutine and Stores the Global Residual vectors and Tangent stiffness matrices" style="rounded=1;whiteSpace=wrap;html=1;" vertex="1" parent="1">
          <mxGeometry x="250" y="10" width="400" height="40" as="geometry" />
        </mxCell>
        <mxCell id="k1HMzf10UT7rga_kBx_9-7" style="edgeStyle=orthogonalEdgeStyle;rounded=0;orthogonalLoop=1;jettySize=auto;html=1;exitX=0.5;exitY=1;exitDx=0;exitDy=0;" edge="1" parent="1" source="k1HMzf10UT7rga_kBx_9-4" target="k1HMzf10UT7rga_kBx_9-6">
          <mxGeometry relative="1" as="geometry" />
        </mxCell>
        <mxCell id="k1HMzf10UT7rga_kBx_9-4" value="Fixes the End_time for test case and normal run" style="rounded=1;whiteSpace=wrap;html=1;" vertex="1" parent="1">
          <mxGeometry x="250" y="70" width="400" height="20" as="geometry" />
        </mxCell>
        <mxCell id="k1HMzf10UT7rga_kBx_9-9" style="edgeStyle=orthogonalEdgeStyle;rounded=0;orthogonalLoop=1;jettySize=auto;html=1;exitX=0.5;exitY=1;exitDx=0;exitDy=0;entryX=0.5;entryY=0;entryDx=0;entryDy=0;" edge="1" parent="1" source="k1HMzf10UT7rga_kBx_9-6" target="k1HMzf10UT7rga_kBx_9-8">
          <mxGeometry relative="1" as="geometry" />
        </mxCell>
        <mxCell id="k1HMzf10UT7rga_kBx_9-84" style="edgeStyle=orthogonalEdgeStyle;rounded=0;orthogonalLoop=1;jettySize=auto;html=1;exitX=1;exitY=0.5;exitDx=0;exitDy=0;entryX=1;entryY=0.5;entryDx=0;entryDy=0;" edge="1" parent="1" source="k1HMzf10UT7rga_kBx_9-6" target="k1HMzf10UT7rga_kBx_9-81">
          <mxGeometry relative="1" as="geometry">
            <Array as="points">
              <mxPoint x="760" y="120" />
              <mxPoint x="760" y="980" />
            </Array>
          </mxGeometry>
        </mxCell>
        <mxCell id="k1HMzf10UT7rga_kBx_9-6" value="For time &amp;lt; End_time" style="shape=hexagon;perimeter=hexagonPerimeter2;whiteSpace=wrap;html=1;fixedSize=1;" vertex="1" parent="1">
          <mxGeometry x="340" y="110" width="220" height="20" as="geometry" />
        </mxCell>
        <mxCell id="k1HMzf10UT7rga_kBx_9-11" style="edgeStyle=orthogonalEdgeStyle;rounded=0;orthogonalLoop=1;jettySize=auto;html=1;exitX=0.5;exitY=1;exitDx=0;exitDy=0;entryX=0.5;entryY=0;entryDx=0;entryDy=0;" edge="1" parent="1" source="k1HMzf10UT7rga_kBx_9-8" target="k1HMzf10UT7rga_kBx_9-10">
          <mxGeometry relative="1" as="geometry" />
        </mxCell>
        <mxCell id="k1HMzf10UT7rga_kBx_9-8" value="&lt;div style=&quot;&quot;&gt;&lt;span style=&quot;background-color: initial;&quot;&gt;Initialize nrs (newton raphson steps) counter to 0&lt;/span&gt;&lt;br&gt;&lt;span style=&quot;background-color: initial;&quot;&gt;Hk stores the Enthalpy values at previous time step&lt;/span&gt;&lt;br&gt;&lt;span style=&quot;background-color: initial;&quot;&gt;Initialize the Hk_1 (current enthalpy) = Hk for first Newton Raphson Step&lt;/span&gt;&lt;br&gt;&lt;span style=&quot;background-color: initial;&quot;&gt;Perform check if the Enthalpy vector was correctly extracted&lt;/span&gt;&lt;br&gt;&lt;span style=&quot;background-color: initial;&quot;&gt;Tk_ 1 = extract temperature values at previous time step Tk from the global Tg vector&lt;/span&gt;&lt;br&gt;&lt;span style=&quot;background-color: initial;&quot;&gt;Perform check if the Temperature vector was correctly extracted&lt;/span&gt;&lt;br&gt;&lt;/div&gt;" style="rounded=1;whiteSpace=wrap;html=1;align=center;" vertex="1" parent="1">
          <mxGeometry x="210" y="150" width="480" height="120" as="geometry" />
        </mxCell>
        <mxCell id="k1HMzf10UT7rga_kBx_9-13" style="edgeStyle=orthogonalEdgeStyle;rounded=0;orthogonalLoop=1;jettySize=auto;html=1;exitX=0.5;exitY=1;exitDx=0;exitDy=0;entryX=0.5;entryY=0;entryDx=0;entryDy=0;" edge="1" parent="1" source="k1HMzf10UT7rga_kBx_9-10" target="k1HMzf10UT7rga_kBx_9-12">
          <mxGeometry relative="1" as="geometry" />
        </mxCell>
        <mxCell id="k1HMzf10UT7rga_kBx_9-86" style="edgeStyle=orthogonalEdgeStyle;rounded=0;orthogonalLoop=1;jettySize=auto;html=1;exitX=1;exitY=0.5;exitDx=0;exitDy=0;entryX=1;entryY=0.5;entryDx=0;entryDy=0;" edge="1" parent="1" source="k1HMzf10UT7rga_kBx_9-10" target="k1HMzf10UT7rga_kBx_9-37">
          <mxGeometry relative="1" as="geometry">
            <mxPoint x="730" y="680" as="targetPoint" />
            <Array as="points">
              <mxPoint x="720" y="305" />
              <mxPoint x="720" y="935" />
            </Array>
          </mxGeometry>
        </mxCell>
        <mxCell id="k1HMzf10UT7rga_kBx_9-10" value="While nrs &amp;lt; 0" style="shape=hexagon;perimeter=hexagonPerimeter2;whiteSpace=wrap;html=1;fixedSize=1;" vertex="1" parent="1">
          <mxGeometry x="255" y="290" width="390" height="30" as="geometry" />
        </mxCell>
        <mxCell id="k1HMzf10UT7rga_kBx_9-15" style="edgeStyle=orthogonalEdgeStyle;rounded=0;orthogonalLoop=1;jettySize=auto;html=1;exitX=0.5;exitY=1;exitDx=0;exitDy=0;entryX=0.5;entryY=0;entryDx=0;entryDy=0;" edge="1" parent="1" source="k1HMzf10UT7rga_kBx_9-12" target="k1HMzf10UT7rga_kBx_9-14">
          <mxGeometry relative="1" as="geometry" />
        </mxCell>
        <mxCell id="k1HMzf10UT7rga_kBx_9-12" value="Ht = store the enthalpy values form the previous newton raphson step" style="rounded=1;whiteSpace=wrap;html=1;" vertex="1" parent="1">
          <mxGeometry x="240" y="340" width="420" height="20" as="geometry" />
        </mxCell>
        <mxCell id="k1HMzf10UT7rga_kBx_9-17" style="edgeStyle=orthogonalEdgeStyle;rounded=0;orthogonalLoop=1;jettySize=auto;html=1;exitX=0.5;exitY=1;exitDx=0;exitDy=0;entryX=0.5;entryY=0;entryDx=0;entryDy=0;" edge="1" parent="1" source="k1HMzf10UT7rga_kBx_9-14" target="k1HMzf10UT7rga_kBx_9-16">
          <mxGeometry relative="1" as="geometry" />
        </mxCell>
        <mxCell id="k1HMzf10UT7rga_kBx_9-14" value="Get the Residual &#39;G&#39; vector and the tangent stiffness matrix vector &#39;dG&#39; for the current nrs step via E.get_param by passing the Enthalpy vectors for the current and previous time step and temperature vector at current time step" style="rounded=1;whiteSpace=wrap;html=1;" vertex="1" parent="1">
          <mxGeometry x="193.75" y="380" width="512.5" height="70" as="geometry" />
        </mxCell>
        <mxCell id="k1HMzf10UT7rga_kBx_9-19" style="edgeStyle=orthogonalEdgeStyle;rounded=0;orthogonalLoop=1;jettySize=auto;html=1;exitX=0.5;exitY=1;exitDx=0;exitDy=0;entryX=0.5;entryY=0;entryDx=0;entryDy=0;" edge="1" parent="1" source="k1HMzf10UT7rga_kBx_9-16" target="k1HMzf10UT7rga_kBx_9-18">
          <mxGeometry relative="1" as="geometry" />
        </mxCell>
        <mxCell id="k1HMzf10UT7rga_kBx_9-16" value="Apply the Boundary Condition at the last node of the G and dG vectors and matrices" style="rounded=1;whiteSpace=wrap;html=1;" vertex="1" parent="1">
          <mxGeometry x="196.25" y="470" width="510" height="30" as="geometry" />
        </mxCell>
        <mxCell id="k1HMzf10UT7rga_kBx_9-22" style="edgeStyle=orthogonalEdgeStyle;rounded=0;orthogonalLoop=1;jettySize=auto;html=1;exitX=0.5;exitY=1;exitDx=0;exitDy=0;entryX=0.5;entryY=0;entryDx=0;entryDy=0;" edge="1" parent="1" source="k1HMzf10UT7rga_kBx_9-18" target="k1HMzf10UT7rga_kBx_9-20">
          <mxGeometry relative="1" as="geometry" />
        </mxCell>
        <mxCell id="k1HMzf10UT7rga_kBx_9-18" value="Update&amp;nbsp; as per the formula Hk_1 = Hk_1 - dG/G" style="rounded=1;whiteSpace=wrap;html=1;" vertex="1" parent="1">
          <mxGeometry x="271.25" y="520" width="360" height="20" as="geometry" />
        </mxCell>
        <mxCell id="k1HMzf10UT7rga_kBx_9-24" style="edgeStyle=orthogonalEdgeStyle;rounded=0;orthogonalLoop=1;jettySize=auto;html=1;exitX=0.5;exitY=1;exitDx=0;exitDy=0;entryX=0.5;entryY=0;entryDx=0;entryDy=0;" edge="1" parent="1" source="k1HMzf10UT7rga_kBx_9-20" target="k1HMzf10UT7rga_kBx_9-23">
          <mxGeometry relative="1" as="geometry" />
        </mxCell>
        <mxCell id="k1HMzf10UT7rga_kBx_9-20" value="Update Tk _1 depending upon the type of material" style="rounded=1;whiteSpace=wrap;html=1;" vertex="1" parent="1">
          <mxGeometry x="240.63" y="560" width="418.75" height="20" as="geometry" />
        </mxCell>
        <mxCell id="k1HMzf10UT7rga_kBx_9-30" style="edgeStyle=orthogonalEdgeStyle;rounded=0;orthogonalLoop=1;jettySize=auto;html=1;exitX=0.5;exitY=1;exitDx=0;exitDy=0;entryX=0.5;entryY=0;entryDx=0;entryDy=0;" edge="1" parent="1" source="k1HMzf10UT7rga_kBx_9-23" target="k1HMzf10UT7rga_kBx_9-25">
          <mxGeometry relative="1" as="geometry" />
        </mxCell>
        <mxCell id="k1HMzf10UT7rga_kBx_9-23" value="Increase the nrs counter" style="rounded=1;whiteSpace=wrap;html=1;" vertex="1" parent="1">
          <mxGeometry x="276.25" y="600" width="350" height="20" as="geometry" />
        </mxCell>
        <mxCell id="k1HMzf10UT7rga_kBx_9-33" style="edgeStyle=orthogonalEdgeStyle;rounded=0;orthogonalLoop=1;jettySize=auto;html=1;exitX=0.5;exitY=1;exitDx=0;exitDy=0;entryX=0.5;entryY=0;entryDx=0;entryDy=0;" edge="1" parent="1" source="k1HMzf10UT7rga_kBx_9-25" target="k1HMzf10UT7rga_kBx_9-26">
          <mxGeometry relative="1" as="geometry">
            <mxPoint x="451.2549999999999" y="730" as="targetPoint" />
          </mxGeometry>
        </mxCell>
        <mxCell id="k1HMzf10UT7rga_kBx_9-34" value="No" style="edgeLabel;html=1;align=center;verticalAlign=middle;resizable=0;points=[];" vertex="1" connectable="0" parent="k1HMzf10UT7rga_kBx_9-33">
          <mxGeometry x="-0.6" y="1" relative="1" as="geometry">
            <mxPoint x="-1" y="4" as="offset" />
          </mxGeometry>
        </mxCell>
        <mxCell id="k1HMzf10UT7rga_kBx_9-35" style="edgeStyle=orthogonalEdgeStyle;rounded=0;orthogonalLoop=1;jettySize=auto;html=1;exitX=1;exitY=0.5;exitDx=0;exitDy=0;entryX=0.5;entryY=0;entryDx=0;entryDy=0;" edge="1" parent="1" target="k1HMzf10UT7rga_kBx_9-26">
          <mxGeometry relative="1" as="geometry">
            <mxPoint x="486.0999999999999" y="665" as="sourcePoint" />
            <mxPoint x="430.0050000000001" y="810" as="targetPoint" />
            <Array as="points">
              <mxPoint x="590" y="665" />
              <mxPoint x="590" y="790" />
              <mxPoint x="450" y="790" />
            </Array>
          </mxGeometry>
        </mxCell>
        <mxCell id="k1HMzf10UT7rga_kBx_9-36" value="Yes" style="edgeLabel;html=1;align=center;verticalAlign=middle;resizable=0;points=[];" vertex="1" connectable="0" parent="k1HMzf10UT7rga_kBx_9-35">
          <mxGeometry x="-0.6699" y="-2" relative="1" as="geometry">
            <mxPoint x="-13" y="-2" as="offset" />
          </mxGeometry>
        </mxCell>
        <mxCell id="k1HMzf10UT7rga_kBx_9-25" value="If nrs == 1 &lt;br&gt;and t = 0" style="rhombus;whiteSpace=wrap;html=1;" vertex="1" parent="1">
          <mxGeometry x="393.9" y="640" width="112.2" height="50" as="geometry" />
        </mxCell>
        <mxCell id="k1HMzf10UT7rga_kBx_9-71" style="edgeStyle=orthogonalEdgeStyle;rounded=0;orthogonalLoop=1;jettySize=auto;html=1;exitX=0;exitY=0.5;exitDx=0;exitDy=0;entryX=0.5;entryY=0;entryDx=0;entryDy=0;" edge="1" parent="1" source="k1HMzf10UT7rga_kBx_9-26" target="k1HMzf10UT7rga_kBx_9-27">
          <mxGeometry relative="1" as="geometry" />
        </mxCell>
        <mxCell id="k1HMzf10UT7rga_kBx_9-73" value="No" style="edgeLabel;html=1;align=center;verticalAlign=middle;resizable=0;points=[];" vertex="1" connectable="0" parent="k1HMzf10UT7rga_kBx_9-71">
          <mxGeometry x="-0.5747" y="-2" relative="1" as="geometry">
            <mxPoint as="offset" />
          </mxGeometry>
        </mxCell>
        <mxCell id="k1HMzf10UT7rga_kBx_9-79" style="edgeStyle=orthogonalEdgeStyle;rounded=0;orthogonalLoop=1;jettySize=auto;html=1;exitX=0.5;exitY=1;exitDx=0;exitDy=0;entryX=0.5;entryY=0;entryDx=0;entryDy=0;" edge="1" parent="1" source="k1HMzf10UT7rga_kBx_9-26" target="k1HMzf10UT7rga_kBx_9-37">
          <mxGeometry relative="1" as="geometry" />
        </mxCell>
        <mxCell id="k1HMzf10UT7rga_kBx_9-80" value="Yes" style="edgeLabel;html=1;align=center;verticalAlign=middle;resizable=0;points=[];" vertex="1" connectable="0" parent="k1HMzf10UT7rga_kBx_9-79">
          <mxGeometry x="-0.3515" relative="1" as="geometry">
            <mxPoint as="offset" />
          </mxGeometry>
        </mxCell>
        <mxCell id="k1HMzf10UT7rga_kBx_9-26" value="If |Ht - Hk_1| &amp;lt; e&lt;sup&gt;-5&lt;/sup&gt;" style="rhombus;whiteSpace=wrap;html=1;" vertex="1" parent="1">
          <mxGeometry x="368.91" y="810" width="162.19" height="40" as="geometry" />
        </mxCell>
        <mxCell id="k1HMzf10UT7rga_kBx_9-69" style="edgeStyle=orthogonalEdgeStyle;rounded=0;orthogonalLoop=1;jettySize=auto;html=1;exitX=0;exitY=0.5;exitDx=0;exitDy=0;entryX=0.5;entryY=0;entryDx=0;entryDy=0;" edge="1" parent="1" source="k1HMzf10UT7rga_kBx_9-27" target="k1HMzf10UT7rga_kBx_9-49">
          <mxGeometry relative="1" as="geometry" />
        </mxCell>
        <mxCell id="k1HMzf10UT7rga_kBx_9-70" value="Yes" style="edgeLabel;html=1;align=center;verticalAlign=middle;resizable=0;points=[];" vertex="1" connectable="0" parent="k1HMzf10UT7rga_kBx_9-69">
          <mxGeometry x="-0.4505" y="2" relative="1" as="geometry">
            <mxPoint as="offset" />
          </mxGeometry>
        </mxCell>
        <mxCell id="k1HMzf10UT7rga_kBx_9-27" value="If nrs &amp;gt; 9" style="rhombus;whiteSpace=wrap;html=1;" vertex="1" parent="1">
          <mxGeometry x="300" y="850" width="80" height="40" as="geometry" />
        </mxCell>
        <mxCell id="k1HMzf10UT7rga_kBx_9-32" style="edgeStyle=orthogonalEdgeStyle;rounded=0;orthogonalLoop=1;jettySize=auto;html=1;entryX=0.5;entryY=0;entryDx=0;entryDy=0;" edge="1" parent="1" target="k1HMzf10UT7rga_kBx_9-26">
          <mxGeometry relative="1" as="geometry">
            <mxPoint x="450" y="790" as="sourcePoint" />
          </mxGeometry>
        </mxCell>
        <mxCell id="k1HMzf10UT7rga_kBx_9-83" style="edgeStyle=orthogonalEdgeStyle;rounded=0;orthogonalLoop=1;jettySize=auto;html=1;exitX=0.5;exitY=1;exitDx=0;exitDy=0;entryX=0.5;entryY=0;entryDx=0;entryDy=0;" edge="1" parent="1" source="k1HMzf10UT7rga_kBx_9-37" target="k1HMzf10UT7rga_kBx_9-81">
          <mxGeometry relative="1" as="geometry" />
        </mxCell>
        <mxCell id="k1HMzf10UT7rga_kBx_9-87" style="edgeStyle=orthogonalEdgeStyle;rounded=0;orthogonalLoop=1;jettySize=auto;html=1;exitX=0;exitY=0.5;exitDx=0;exitDy=0;entryX=0;entryY=0.5;entryDx=0;entryDy=0;" edge="1" parent="1" source="k1HMzf10UT7rga_kBx_9-37" target="k1HMzf10UT7rga_kBx_9-10">
          <mxGeometry relative="1" as="geometry">
            <Array as="points">
              <mxPoint x="160" y="935" />
              <mxPoint x="160" y="305" />
            </Array>
          </mxGeometry>
        </mxCell>
        <mxCell id="k1HMzf10UT7rga_kBx_9-37" value="display the solution converged in nrs newton raphson step" style="rounded=1;whiteSpace=wrap;html=1;" vertex="1" parent="1">
          <mxGeometry x="359.99999999999994" y="920" width="180" height="30" as="geometry" />
        </mxCell>
        <mxCell id="k1HMzf10UT7rga_kBx_9-89" style="edgeStyle=orthogonalEdgeStyle;rounded=0;orthogonalLoop=1;jettySize=auto;html=1;exitX=0.5;exitY=1;exitDx=0;exitDy=0;entryX=0.004;entryY=0.646;entryDx=0;entryDy=0;entryPerimeter=0;" edge="1" parent="1" source="k1HMzf10UT7rga_kBx_9-49" target="k1HMzf10UT7rga_kBx_9-2">
          <mxGeometry relative="1" as="geometry" />
        </mxCell>
        <mxCell id="k1HMzf10UT7rga_kBx_9-49" value="Raise Value error" style="rounded=1;whiteSpace=wrap;html=1;" vertex="1" parent="1">
          <mxGeometry x="180" y="900" width="120" height="20" as="geometry" />
        </mxCell>
        <mxCell id="k1HMzf10UT7rga_kBx_9-67" value="The program run was successful all test were performed and verified internally. Hence print all test were successful.&amp;nbsp;&amp;nbsp;" style="rounded=1;whiteSpace=wrap;html=1;" vertex="1" parent="1">
          <mxGeometry x="470" y="710" width="236.25" height="50" as="geometry" />
        </mxCell>
        <mxCell id="k1HMzf10UT7rga_kBx_9-85" style="edgeStyle=orthogonalEdgeStyle;rounded=0;orthogonalLoop=1;jettySize=auto;html=1;exitX=0;exitY=0.5;exitDx=0;exitDy=0;entryX=0;entryY=0.5;entryDx=0;entryDy=0;" edge="1" parent="1" source="k1HMzf10UT7rga_kBx_9-81" target="k1HMzf10UT7rga_kBx_9-6">
          <mxGeometry relative="1" as="geometry">
            <Array as="points">
              <mxPoint x="120" y="980" />
              <mxPoint x="120" y="120" />
            </Array>
          </mxGeometry>
        </mxCell>
        <mxCell id="k1HMzf10UT7rga_kBx_9-88" style="edgeStyle=orthogonalEdgeStyle;rounded=0;orthogonalLoop=1;jettySize=auto;html=1;exitX=0.5;exitY=1;exitDx=0;exitDy=0;entryX=0.5;entryY=0;entryDx=0;entryDy=0;" edge="1" parent="1" source="k1HMzf10UT7rga_kBx_9-81" target="k1HMzf10UT7rga_kBx_9-2">
          <mxGeometry relative="1" as="geometry" />
        </mxCell>
        <mxCell id="k1HMzf10UT7rga_kBx_9-81" value="Record the Temperature and Enthalpy values in the attribute of the FEA class&amp;nbsp;&lt;br&gt;self.Tg = stack the new temperature fields Tk_1&lt;br&gt;self.Hg = stack the new Enthalpy fields Hk_1" style="whiteSpace=wrap;html=1;rounded=1;" vertex="1" parent="1">
          <mxGeometry x="259.1" y="970" width="384.3" height="60" as="geometry" />
        </mxCell>
      </root>
    </mxGraphModel>
  </diagram>
</mxfile>
